<?xml version="1.0" encoding="UTF-8" standalone="no"?>
<svg
 
   version="1.1"
   viewBox="0 0 59.999996 60"
   id="svg16"
   width="60"
   height="60"
   xmlns="http://www.w3.org/2000/svg">
   <defs
     id="defs20" />
  <g
     id="layer2"
     style="display:inline"
     transform="matrix(0.53333333,0,0,0.53333333,14,14)">
    <g
       id="g856"
       transform="matrix(2.5,0,0,2.5,-7.5,-7.5)">
      <circle
         style="display:inline;fill:#ffffff;stroke-width:9.34856"
         id="path391"
         cy="15"
         cx="15"
         r="15" />
      <circle
         style="display:inline;fill:#000000;stroke-width:14.8939"
         id="path395"
         cx="14.995001"
         cy="14.995001"
         r="14.725" />
      <circle
         style="display:inline;fill:#ffffff;stroke-width:7.94432"
         id="path449"
         cx="14.995"
         cy="14.995001"
         r="14.255" />
      <circle
         style="display:inline;fill:#000000;stroke-width:4.56155"
         id="path451"
         cx="14.997161"
         cy="14.997161"
         r="8.8226194" />
      <circle
         style="display:inline;fill:#ffffff;stroke-width:7.90774"
         id="path453"
         cx="14.984243"
         cy="14.984244"
         r="8.3705082" />
      <ellipse
         style="display:inline;fill:#000000;stroke-width:8.84465"
         id="path455"
         cx="14.997161"
         cy="14.997161"
         rx="7.9959025"
         ry="7.9959021" />
      <circle
         style="display:inline;fill:#ffffff;stroke-width:6.54205"
         id="path457"
         cx="15.010078"
         cy="15.010077"
         r="7.4404516" />
      <path
         style="fill:#000000"
         d="m 8.3705085,14.415876 3.3327025,2.144297 -2.0409574,2.454316 c 0,0 -0.886151,-1.386214 -1.0850659,-2.170132 C 8.2279702,15.468101 8.3705085,14.415876 8.3705085,14.415876 Z"
         id="path813" />
      <path
         style="fill:#000000"
         d="m 17.851918,12.736607 1.782608,-2.53182 c 0,0 0.757638,0.716414 1.291746,1.653433 0.561662,0.985359 0.645872,2.144297 0.645872,2.144297 z"
         id="path811" />
      <path
         style="fill:#000000"
         d="m 16.766852,12.633267 2.118462,-3.0485181 c 0,0 -1.060173,-0.686787 -2.144297,-1.0075612 -1.146732,-0.339299 -2.531821,-0.2066792 -2.531821,-0.2066792 z"
         id="path809" />
      <path
         style="fill:#000000"
         d="m 8.499683,13.33081 4.00441,2.609325 1.550094,-0.05167 1.885948,-2.790169 -2.7385,-4.5469432 c 0,0 -1.806602,0.4673978 -3.2035277,1.9892882 C 9.0342257,11.590747 8.499683,13.33081 8.499683,13.33081 Z"
         id="path594" />
      <path
         style="fill:#000000"
         d="m 14.080022,16.870192 0.465028,1.291745 -1.420919,3.229362 c 0,0 -0.884884,-0.238507 -1.627599,-0.723377 -0.775586,-0.506329 -1.162571,-0.930056 -1.162571,-0.930056 l 2.273471,-2.816005 z"
         id="path818" />
      <path
         style="fill:#000000"
         d="m 17.154375,13.434149 -0.387523,0.15501 -1.937618,2.893509 0.620038,1.291745 3.875235,2.299306 c 0,0 0.965948,-0.726394 1.705104,-2.247636 0.722113,-1.486166 0.671708,-2.79017 0.671708,-2.79017 z"
         id="path820" />
      <path
         style="fill:#000000"
         d="m 15.268428,18.781974 3.203527,1.885948 c 0,0 -0.957073,0.597751 -1.989287,0.826717 -1.311056,0.290819 -2.428481,0.129175 -2.428481,0.129175 z"
         id="path822" />
    </g>
  </g>
</svg>