<svg
 
   viewBox="0 0 258 258"
   id="svg16"
   width="258"
   height="258"
   xmlns="http://www.w3.org/2000/svg">
  <defs
     id="defs20" />
  <sodipodi:namedview
     id="namedview18"
     pagecolor="#ffffff"
     bordercolor="#000000"
     borderopacity="0.25"
     showgrid="false"
 />
  <g
     id="layer1"
     transform="matrix(0.99547511,0,0,0.99547511,1.2432184,1.0633484)">
    <circle
       style="fill:#ffffff;stroke-width:1.00306;"
       id="path233"
       cx="128.33749"
       cy="128.51819"
       r="129.58636" />
  </g>
  <g
     fill="#000000"
     fill-rule="none"
     stroke="none"
     stroke-width="1"
     stroke-linecap="butt"
     stroke-linejoin="miter"
     stroke-miterlimit="10"
     stroke-dasharray="none"
     stroke-dashoffset="0"
     font-family="none"
     font-weight="none"
     font-size="none"
     text-anchor="none"
     style="mix-blend-mode:normal"
     id="g14"
     transform="translate(-145.99995,-106)">
    <g
       data-paper-data="{&quot;isGlobalGroup&quot;:true,&quot;bounds&quot;:{&quot;x&quot;:145.99995264981197,&quot;y&quot;:106,&quot;width&quot;:258.00009470037605,&quot;height&quot;:258}}"
       id="g12">
      <g
         data-paper-data="{&quot;isIcon&quot;:&quot;true&quot;,&quot;iconType&quot;:&quot;icon&quot;,&quot;rawIconId&quot;:&quot;624285&quot;,&quot;selectedEffects&quot;:{&quot;container&quot;:&quot;circle_simple_filledplus&quot;,&quot;transformation&quot;:&quot;&quot;,&quot;pattern&quot;:&quot;&quot;},&quot;isDetailed&quot;:false,&quot;fillRule&quot;:&quot;nonzero&quot;,&quot;blockLetter&quot;:&quot;O&quot;,&quot;blockLetterId&quot;:0,&quot;relativeBoundsIconToContainer&quot;:{&quot;top&quot;:0.0003436840230759476,&quot;left&quot;:-0.0002315733111813771},&quot;widthRatioIconToContainer&quot;:0.7949741765874035,&quot;heightRatioIconToContainer&quot;:0.7949742163361124,&quot;bounds&quot;:{&quot;x&quot;:203.02785679394475,&quot;y&quot;:163.02780887555417,&quot;width&quot;:143.94459324133942,&quot;height&quot;:143.94457164964382},&quot;iconStyle&quot;:&quot;standalone&quot;,&quot;suitableAsStandaloneIcon&quot;:true}"
         fill-rule="nonzero"
         id="g4">
        <path
           d="m 211.04742,235.00004 c 0,-35.32007 28.63257,-63.95264 63.95264,-63.95264 35.32007,0 63.95264,28.63257 63.95264,63.95264 0,35.32007 -28.63257,63.95264 -63.95264,63.95264 -35.32007,0 -63.95264,-28.63257 -63.95264,-63.95264 z m 57.53526,-56.80524 11.68414,19.51371 9.6364,16.38189 0.60227,-0.12046 7.58867,-10.84095 10.11822,-14.4546 -4.69775,-3.01138 -5.30002,-2.77047 -5.54093,-2.16819 -5.78184,-1.56592 -5.9023,-0.96364 -6.02275,-0.36137 -6.02275,0.36137 z m -1.80682,64.32297 16.02052,-23.72963 -23.12736,-38.78652 -2.4091,0.60227 -5.54093,2.16819 -5.30002,2.77047 -5.05911,3.25229 -4.69775,3.73411 -4.21592,4.21592 -3.73411,4.69775 -3.25229,5.05911 -2.77047,5.30002 -2.16819,5.54093 -0.96364,3.61365 18.55007,11.92505 15.65915,10.23868 2.65001,-0.12046 z m 62.51614,-25.17508 -2.16819,-5.54093 -2.77047,-5.30002 -3.25229,-5.05911 -3.73411,-4.69775 -2.52955,-2.65001 -3.61365,5.17957 -11.32277,16.02052 31.43876,10.72049 -0.48183,-2.89092 z m -55.28885,29.87284 2.04773,4.69775 2.89092,6.74548 33.24558,19.87508 1.0841,-0.96364 4.21592,-4.21592 3.73411,-4.69775 3.25229,-5.05911 2.77047,-5.30002 2.16819,-5.54093 1.56592,-5.78184 0.96364,-5.9023 0.24091,-5.78184 -39.14788,-13.37051 -2.4091,0.72273 z m -55.89113,-6.14321 0.96364,5.9023 1.56592,5.78184 2.16819,5.54093 2.77047,5.30002 3.25229,5.05911 0.48183,0.60227 17.10462,-20.83871 -28.42738,-18.30916 -0.24091,4.93865 z m 16.86369,34.69105 1.80682,1.80682 4.69775,3.73411 5.05911,3.25229 5.30002,2.77047 5.54093,2.16819 1.325,0.36137 12.16596,-28.30693 -4.45684,-10.47959 -11.68414,0.48183 z m 33.96832,16.14097 6.02275,0.36137 6.02275,-0.36137 5.9023,-0.96364 5.78184,-1.56592 5.54093,-2.16819 5.30002,-2.77047 1.0841,-0.72273 -11.08186,-6.62503 -16.02052,-9.39549 -10.35913,23.97055 z m 78.01494,-55.48647 -0.0169,0.71892 -0.0239,0.71892 -0.0312,0.71854 -0.0381,0.71854 -0.045,0.71777 -0.052,0.71777 -0.0593,0.717 -0.0666,0.71661 -0.0735,0.71584 -0.0808,0.71546 -0.0877,0.7143 -0.0954,0.71353 -0.10237,0.71276 -0.1093,0.71122 -0.117,0.71045 -0.12393,0.7093 -0.13162,0.70815 -0.13817,0.70661 -0.14587,0.70507 -0.15279,0.70391 -0.16049,0.70199 -0.16703,0.70045 -0.17435,0.69853 -0.18166,0.6966 -0.18858,0.69506 -0.19589,0.69276 -0.20244,0.69083 -0.20975,0.6889 -0.21668,0.68659 -0.2236,0.68428 -0.23015,0.68197 -0.23746,0.67967 -0.244,0.67697 -0.25054,0.67466 -0.25709,0.67197 -0.26402,0.66928 -0.27056,0.66658 -0.27672,0.66389 -0.16318,0.38255 -0.28556,0.65657 -0.29365,0.65657 -0.29981,0.65388 -0.30635,0.6508 -0.31289,0.64811 -0.31905,0.64503 -0.32598,0.64157 -0.33214,0.63849 -0.33829,0.63541 -0.34522,0.63156 -0.35138,0.62848 -0.35754,0.62463 -0.36408,0.62117 -0.37024,0.61732 -0.37639,0.61386 -0.38294,0.60962 -0.3891,0.60616 -0.39487,0.60193 -0.40141,0.59769 -0.40718,0.59384 -0.41334,0.58961 -0.4195,0.58537 -0.42489,0.58076 -0.43105,0.57691 -0.43682,0.57191 -0.44259,0.56806 -0.44837,0.56305 -0.45375,0.55882 -0.45953,0.5542 -0.46491,0.5492 -0.46991,0.54497 -0.47569,0.53997 -0.4807,0.53496 -0.48608,0.53072 -0.49108,0.52534 -0.49647,0.52072 -0.50109,0.5161 -0.50571,0.51072 -0.29481,0.29327 -0.5111,0.5007 -0.51841,0.49839 -0.52341,0.49339 -0.52803,0.48801 -0.53303,0.48339 -0.53804,0.47762 -0.54227,0.47261 -0.54728,0.46722 -0.55228,0.46183 -0.55651,0.45645 -0.56113,0.45068 -0.56575,0.44529 -0.56998,0.43912 -0.57499,0.43374 -0.57883,0.42797 -0.58345,0.42181 -0.58768,0.41604 -0.59192,0.40988 -0.59577,0.4041 -0.6,0.39795 -0.60424,0.39179 -0.60808,0.38563 -0.61193,0.37909 -0.61578,0.37331 -0.61963,0.36677 -0.62309,0.36062 -0.62656,0.35408 -0.63041,0.34791 -0.63387,0.34137 -0.63695,0.33522 -0.64041,0.32868 -0.64349,0.32213 -0.64657,0.31558 -0.64965,0.30943 -0.65272,0.30289 -0.65542,0.29635 -0.6585,0.2898 -0.6612,0.28364 -0.65272,0.27248 -0.66658,0.27056 -0.66889,0.2644 -0.67197,0.25747 -0.67428,0.25093 -0.67697,0.244 -0.67967,0.23746 -0.68159,0.23092 -0.68428,0.2236 -0.68621,0.21706 -0.6889,0.20975 -0.69044,0.20321 -0.69314,0.19589 -0.69468,0.18897 -0.6966,0.18166 -0.69853,0.17473 -0.70045,0.16741 -0.70199,0.16049 -0.70353,0.15318 -0.70507,0.14625 -0.70661,0.13855 -0.70815,0.13162 -0.70892,0.12431 -0.71045,0.11738 -0.71161,0.10969 -0.71276,0.10275 -0.71353,0.0954 -0.7143,0.0881 -0.71546,0.0812 -0.71584,0.0739 -0.71661,0.0666 -0.717,0.0597 -0.71777,0.0523 -0.71815,0.0454 -0.71815,0.0385 -0.71892,0.0312 -0.71892,0.0242 -0.71892,0.0173 -0.71892,0.0104 -0.71892,0.003 -0.70738,-0.003 -0.71892,-0.01 -0.71892,-0.0169 -0.71854,-0.0239 -0.71854,-0.0312 -0.71854,-0.0381 -0.71815,-0.045 -0.71738,-0.052 -0.71738,-0.0593 -0.71638,-0.0666 -0.71592,-0.0735 -0.71527,-0.0808 -0.71442,-0.0877 -0.71353,-0.0954 -0.71258,-0.10237 -0.71161,-0.1093 -0.71042,-0.117 -0.70927,-0.12393 -0.70799,-0.13162 -0.70661,-0.13817 -0.70518,-0.14587 -0.70364,-0.15279 -0.70203,-0.1601 -0.70045,-0.16741 -0.6986,-0.17435 -0.69683,-0.18166 -0.69487,-0.18858 -0.69294,-0.19589 -0.69087,-0.20244 -0.68871,-0.20975 -0.68659,-0.21668 -0.68425,-0.2236 -0.68197,-0.23015 -0.67955,-0.23746 -0.67709,-0.244 -0.67459,-0.25054 -0.67201,-0.25709 -0.66931,-0.26402 -0.66669,-0.27056 -0.66389,-0.27672 -0.38263,-0.16318 -0.65627,-0.28556 -0.65673,-0.29365 -0.65392,-0.29981 -0.65095,-0.30635 -0.648,-0.31289 -0.64488,-0.31905 -0.64176,-0.32598 -0.63849,-0.33214 -0.63521,-0.33829 -0.63175,-0.34522 -0.62833,-0.35138 -0.62478,-0.35754 -0.62109,-0.36408 -0.61744,-0.37024 -0.61366,-0.37639 -0.60981,-0.38294 -0.60593,-0.3891 -0.60189,-0.39525 -0.59785,-0.40103 -0.59376,-0.40718 -0.58952,-0.41334 -0.58534,-0.4195 -0.581,-0.42527 -0.57666,-0.43105 -0.57224,-0.43682 -0.56777,-0.44221 -0.56326,-0.44837 -0.55869,-0.45375 -0.55408,-0.45953 -0.54945,-0.46491 -0.54471,-0.46991 -0.54,-0.47569 -0.53523,-0.48108 -0.53043,-0.4857 -0.52559,-0.49108 -0.52076,-0.49609 -0.51583,-0.50147 -0.51095,-0.50571 -0.29307,-0.29481 -0.50078,-0.5111 -0.49832,-0.51841 -0.49332,-0.52341 -0.48827,-0.52803 -0.48312,-0.53303 -0.47788,-0.53804 -0.47261,-0.54227 -0.46722,-0.54728 -0.4618,-0.55228 -0.45629,-0.55651 -0.45071,-0.56113 -0.44509,-0.56575 -0.4394,-0.56998 -0.43363,-0.5746 -0.42781,-0.57922 -0.42192,-0.58345 -0.416,-0.58768 -0.41,-0.59153 -0.40399,-0.59615 -0.39787,-0.6 -0.39179,-0.60424 -0.38559,-0.60808 -0.37936,-0.61193 -0.37316,-0.61578 -0.36685,-0.61963 -0.36054,-0.62309 -0.35423,-0.62656 -0.34784,-0.63041 -0.34145,-0.63387 -0.33506,-0.63695 -0.32863,-0.64041 -0.32221,-0.64349 -0.31574,-0.64657 -0.30932,-0.64965 -0.30281,-0.65272 -0.29638,-0.65542 -0.28995,-0.6585 -0.28345,-0.6612 -0.2726,-0.65272 -0.27064,-0.66658 -0.26413,-0.66889 -0.25755,-0.67197 -0.25089,-0.67428 -0.24419,-0.67697 -0.23746,-0.67967 -0.23065,-0.68159 -0.2238,-0.68428 -0.21691,-0.68621 -0.20994,-0.6889 -0.20298,-0.69044 -0.19593,-0.69314 -0.18889,-0.69468 -0.18181,-0.6966 -0.17473,-0.69853 -0.16757,-0.70045 -0.16037,-0.70199 -0.15321,-0.70353 -0.14605,-0.70507 -0.13878,-0.70661 -0.13162,-0.70815 -0.12435,-0.70892 -0.11715,-0.71045 -0.10988,-0.71161 -0.10268,-0.71276 -0.0955,-0.71353 -0.0883,-0.7143 -0.0811,-0.71546 -0.0739,-0.71584 -0.0667,-0.71661 -0.0596,-0.717 -0.0524,-0.71777 -0.0453,-0.71815 -0.0383,-0.71854 -0.0312,-0.71854 -0.0242,-0.71892 -0.0173,-0.71892 -0.0103,-0.71892 -0.004,-0.71892 0.003,-0.70738 0.0101,-0.71892 0.017,-0.71892 0.024,-0.71854 0.031,-0.71854 0.038,-0.71854 0.0451,-0.71815 0.0521,-0.71738 0.0593,-0.71738 0.0664,-0.71638 0.0735,-0.71596 0.0808,-0.71523 0.0879,-0.71442 0.0952,-0.71353 0.10237,-0.71261 0.10961,-0.71158 0.11685,-0.71045 0.12408,-0.70922 0.13131,-0.70799 0.13851,-0.70661 0.14571,-0.70518 0.15294,-0.70364 0.1601,-0.70207 0.1673,-0.70037 0.17438,-0.69864 0.18154,-0.69679 0.18862,-0.69491 0.19566,-0.69294 0.20271,-0.69087 0.20971,-0.68871 0.2166,-0.68656 0.22353,-0.68428 0.23042,-0.68197 0.23719,-0.67955 0.24396,-0.67709 0.25066,-0.67459 0.25728,-0.67201 0.26394,-0.66935 0.27044,-0.66666 0.27691,-0.66389 0.16295,-0.38248 0.28564,-0.65631 0.29346,-0.65673 0.29989,-0.65388 0.30639,-0.651 0.31281,-0.648 0.31928,-0.64488 0.32571,-0.64176 0.33214,-0.63849 0.33856,-0.63521 0.34495,-0.63179 0.35134,-0.62829 0.35765,-0.62475 0.36404,-0.62117 0.37028,-0.61744 0.37659,-0.61362 0.38278,-0.60981 0.38898,-0.60593 0.39514,-0.60189 0.40126,-0.59788 0.4073,-0.59373 0.4133,-0.58956 0.41927,-0.58531 0.42515,-0.58102 0.43105,-0.57666 0.43682,-0.57224 0.44255,-0.56778 0.44821,-0.56326 0.45383,-0.55869 0.45937,-0.55409 0.4648,-0.54943 0.47027,-0.54474 0.47554,-0.54 0.48081,-0.53523 0.48601,-0.53044 0.49112,-0.52562 0.49613,-0.52072 0.50109,-0.51587 0.50598,-0.51095 0.29461,-0.29307 0.51113,-0.50078 0.51849,-0.49832 0.52337,-0.49332 0.52821,-0.48827 0.53303,-0.48312 0.53781,-0.47788 0.54256,-0.47257 0.54728,-0.46722 0.55195,-0.4618 0.55658,-0.45629 0.56118,-0.45075 0.56572,-0.44506 0.57021,-0.4394 0.57465,-0.43363 0.57904,-0.42781 0.58337,-0.42192 0.58765,-0.416 0.59184,-0.41 0.596,-0.40399 0.60012,-0.39787 0.60412,-0.39179 0.60804,-0.38559 0.61193,-0.37936 0.61578,-0.37316 0.61947,-0.36685 0.62317,-0.36054 0.62675,-0.35423 0.63029,-0.34784 0.63367,-0.34145 0.63706,-0.33506 0.64037,-0.32863 0.64353,-0.32221 0.64664,-0.31574 0.64972,-0.30932 0.65265,-0.30285 0.65554,-0.29638 0.65835,-0.28992 0.66104,-0.28349 0.65315,-0.27267 0.66635,-0.27059 0.66916,-0.26413 0.67185,-0.25755 0.6744,-0.25089 0.67694,-0.24423 0.6794,-0.23742 0.68182,-0.23065 0.68417,-0.2238 0.6864,-0.21687 0.68863,-0.20998 0.69075,-0.20294 0.69279,-0.19597 0.69483,-0.18889 0.69668,-0.18181 0.69856,-0.17469 0.7003,-0.16757 0.70199,-0.16041 0.70361,-0.15321 0.70514,-0.14602 0.70657,-0.13882 0.70792,-0.13159 0.70922,-0.12435 0.71045,-0.11715 0.71153,-0.10992 0.71261,-0.10268 0.71358,-0.0954 0.71442,-0.0883 0.71527,-0.0811 0.71596,-0.0739 0.71665,-0.0667 0.717,-0.0596 0.71777,-0.0524 0.71815,-0.0454 0.71854,-0.0383 0.71854,-0.0312 0.71892,-0.0242 0.71892,-0.0173 0.71892,-0.0103 0.71892,-0.004 0.70738,0.003 0.71854,0.0101 0.71892,0.0171 0.71892,0.024 0.71854,0.031 0.71854,0.038 0.71777,0.0451 0.71777,0.0521 0.717,0.0593 0.71661,0.0664 0.71584,0.0736 0.71546,0.0807 0.7143,0.088 0.71353,0.0952 0.71276,0.10237 0.71122,0.10961 0.71045,0.11685 0.7093,0.12408 0.70815,0.13128 0.70661,0.13851 0.70507,0.14574 0.70391,0.15294 0.70199,0.1601 0.70045,0.16726 0.69853,0.17442 0.6966,0.18154 0.69506,0.18862 0.69276,0.19566 0.69083,0.20271 0.6889,0.20967 0.68659,0.21664 0.68428,0.22353 0.68197,0.23038 0.67967,0.23723 0.67697,0.24393 0.67466,0.25066 0.67197,0.25732 0.66928,0.26394 0.66658,0.27044 0.66389,0.27691 0.38255,0.16295 0.65619,0.28564 0.65696,0.29342 0.65388,0.29992 0.6508,0.30635 0.64811,0.31281 0.64503,0.31928 0.64157,0.32571 0.63849,0.33214 0.63503,0.33856 0.63195,0.34495 0.62848,0.35134 0.62463,0.35765 0.62117,0.364 0.61732,0.37031 0.61386,0.37655 0.60962,0.38282 0.60578,0.38898 0.60193,0.39514 0.59808,0.40122 0.59384,0.4073 0.58922,0.41334 0.58537,0.41927 0.58114,0.42515 0.57653,0.43105 0.57229,0.43682 0.56767,0.44255 0.56344,0.44821 0.55882,0.45383 0.55382,0.45937 0.54958,0.46484 0.54458,0.47022 0.53997,0.47557 0.53534,0.48081 0.53034,0.48601 0.52572,0.49112 0.52072,0.49613 0.5161,0.50109 0.51072,0.50598 0.29327,0.29469 0.5007,0.51118 0.49839,0.51845 0.49339,0.52337 0.48801,0.5282 0.48339,0.53303 0.47762,0.5378 0.47261,0.54257 0.46722,0.54726 0.46183,0.55196 0.45645,0.55657 0.45068,0.56117 0.44529,0.56572 0.43912,0.57021 0.43374,0.57463 0.42797,0.57904 0.42181,0.58339 0.41604,0.5876 0.40988,0.59188 0.4041,0.596 0.39795,0.60008 0.39179,0.60412 0.38525,0.60804 0.37947,0.61193 0.37331,0.61578 0.36677,0.61952 0.36062,0.62313 0.35408,0.62679 0.34791,0.63025 0.34137,0.63367 0.33522,0.63706 0.32868,0.64037 0.32213,0.64349 0.31558,0.64672 0.30943,0.64969 0.30289,0.65265 0.29635,0.65554 0.2898,0.65831 0.28364,0.66108 0.27248,0.65315 0.27094,0.66631 0.26402,0.66923 0.25747,0.67182 0.25093,0.6744 0.24439,0.67694 0.23746,0.67943 0.23053,0.68179 0.2236,0.68417 0.21706,0.6864 0.20975,0.6886 0.20321,0.69079 0.19589,0.69279 0.18897,0.69483 0.18166,0.69668 0.17473,0.69856 0.16741,0.70033 0.16049,0.70195 0.15318,0.70364 0.14625,0.70511 0.13855,0.70657 0.13162,0.70792 0.12431,0.70922 0.11738,0.71045 0.10969,0.71158 0.10275,0.71258 0.0954,0.71353 0.0881,0.71446 0.0812,0.71527 0.0739,0.71596 0.0666,0.71665 0.0596,0.717 0.0523,0.71777 0.0454,0.71815 0.0385,0.71854 0.0312,0.71854 0.0242,0.71892 0.0173,0.71892 0.0104,0.71892 0.003,0.71892 v 0.0162 l -0.003,0.69121 z m -3.36639,-2.09634 -0.01,-0.68659 -0.0165,-0.68621 -0.0231,-0.68621 -0.0296,-0.68582 -0.0362,-0.68505 -0.0431,-0.68505 -0.05,-0.68428 -0.0566,-0.68351 -0.0635,-0.68302 -0.07,-0.68233 -0.077,-0.68148 -0.0839,-0.68067 -0.0908,-0.67974 -0.0977,-0.67874 -0.1043,-0.67763 -0.11161,-0.67655 -0.11815,-0.67536 -0.12508,-0.67413 -0.132,-0.67274 -0.13894,-0.67139 -0.14548,-0.66989 -0.15279,-0.66843 -0.15933,-0.66677 -0.16626,-0.6652 -0.17281,-0.66346 -0.17973,-0.66169 -0.18627,-0.65985 -0.1932,-0.65792 -0.20013,-0.656 -0.20629,-0.654 -0.21321,-0.65192 -0.21937,-0.6498 -0.2263,-0.64761 -0.23246,-0.64538 -0.23939,-0.64311 -0.24516,-0.64076 -0.25208,-0.63837 -0.25824,-0.6361 -0.25978,-0.62313 -0.27056,-0.6309 -0.27633,-0.62817 -0.28249,-0.62536 -0.28864,-0.62252 -0.29481,-0.61955 -0.30096,-0.61651 -0.30712,-0.61351 -0.31289,-0.61032 -0.31905,-0.60708 -0.32521,-0.60385 -0.33137,-0.6005 -0.33714,-0.59708 -0.3433,-0.59365 -0.34907,-0.59007 -0.35523,-0.5865 -0.36139,-0.58288 -0.36677,-0.5791 -0.37293,-0.57537 -0.37909,-0.57156 -0.38448,-0.56767 -0.39025,-0.56371 -0.39602,-0.55978 -0.4018,-0.55571 -0.40718,-0.55162 -0.41296,-0.54752 -0.41873,-0.54335 -0.42374,-0.53911 -0.42951,-0.53487 -0.43489,-0.53059 -0.43989,-0.52624 -0.44529,-0.5219 -0.45068,-0.51748 -0.45568,-0.51308 -0.46068,-0.50861 -0.46568,-0.50414 -0.47107,-0.49962 -0.47531,-0.4951 -0.483,-0.49299 -0.27518,-0.27677 -0.48762,-0.48322 -0.49262,-0.47847 -0.49686,-0.47357 -0.50109,-0.46873 -0.50609,-0.46372 -0.51033,-0.45868 -0.51495,-0.4536 -0.51918,-0.4484 -0.52341,-0.44321 -0.52803,-0.43789 -0.53226,-0.43258 -0.5365,-0.4272 -0.54074,-0.42173 -0.54497,-0.41623 -0.5492,-0.41069 -0.55343,-0.40507 -0.55728,-0.39941 -0.56113,-0.39375 -0.56536,-0.38802 -0.56921,-0.38221 -0.57306,-0.37644 -0.57691,-0.37054 -0.58076,-0.3647 -0.58422,-0.35877 -0.58807,-0.35284 -0.59153,-0.34683 -0.595,-0.34088 -0.59846,-0.33487 -0.60193,-0.32879 -0.60539,-0.32278 -0.60847,-0.31671 -0.61155,-0.31063 -0.61462,-0.30454 -0.61809,-0.29843 -0.62078,-0.29234 -0.62386,-0.28626 -0.62656,-0.28014 -0.63233,-0.27541 -0.35869,-0.15294 -0.63349,-0.26436 -0.6358,-0.25809 -0.63849,-0.25185 -0.64041,-0.2455 -0.64311,-0.23911 -0.64541,-0.23265 -0.64734,-0.22622 -0.64965,-0.21964 -0.65195,-0.21314 -0.65388,-0.20652 -0.65619,-0.19986 -0.65773,-0.1932 -0.65966,-0.1865 -0.66197,-0.17977 -0.66312,-0.17299 -0.66543,-0.16626 -0.66658,-0.15941 -0.66851,-0.1526 -0.67005,-0.14579 -0.6712,-0.13894 -0.67274,-0.13205 -0.67428,-0.1252 -0.67505,-0.11831 -0.67659,-0.11146 -0.67774,-0.10457 -0.6789,-0.0977 -0.67967,-0.0908 -0.68082,-0.084 -0.68159,-0.0771 -0.68236,-0.0703 -0.68313,-0.0635 -0.68351,-0.0567 -0.68428,-0.0499 -0.68505,-0.0431 -0.68544,-0.0365 -0.68582,-0.0297 -0.68582,-0.023 -0.68659,-0.0164 -0.68659,-0.01 -0.67543,-0.003 -0.68659,0.003 -0.68659,0.01 -0.68621,0.0164 -0.68621,0.023 -0.68582,0.0297 -0.68505,0.0364 -0.68505,0.0431 -0.68428,0.0498 -0.68351,0.0566 -0.68302,0.0634 -0.68233,0.0702 -0.68151,0.0771 -0.68063,0.0839 -0.67974,0.0908 -0.67871,0.0976 -0.67766,0.10449 -0.67655,0.11138 -0.67536,0.11823 -0.67409,0.12512 -0.67278,0.132 -0.67139,0.13886 -0.66989,0.14571 -0.66843,0.15256 -0.66682,0.15937 -0.66516,0.16615 -0.66346,0.17296 -0.66169,0.17973 -0.65985,0.18647 -0.65792,0.19312 -0.656,0.19986 -0.654,0.20644 -0.65192,0.21306 -0.6498,0.21964 -0.64761,0.22618 -0.64538,0.23261 -0.64311,0.23911 -0.64076,0.24547 -0.63837,0.25182 -0.6361,0.25813 -0.62313,0.25997 -0.6309,0.27036 -0.62817,0.27648 -0.62536,0.28256 -0.62252,0.28869 -0.61955,0.29476 -0.61655,0.30089 -0.61347,0.30697 -0.61032,0.31301 -0.60712,0.31913 -0.60385,0.32517 -0.60047,0.33125 -0.59711,0.33726 -0.59361,0.34326 -0.59011,0.34922 -0.5865,0.35523 -0.58284,0.36116 -0.57914,0.36704 -0.57537,0.37293 -0.57156,0.37874 -0.56767,0.38456 -0.56371,0.39033 -0.55978,0.39602 -0.55571,0.40172 -0.55162,0.40738 -0.54753,0.41292 -0.54334,0.4185 -0.53913,0.42392 -0.53488,0.42939 -0.53059,0.43478 -0.52625,0.44009 -0.52189,0.44532 -0.5175,0.45056 -0.51307,0.45568 -0.50861,0.4608 -0.50414,0.46576 -0.49963,0.47076 -0.4951,0.47561 -0.493,0.48288 -0.27665,0.27507 -0.48322,0.48776 -0.47844,0.49233 -0.47361,0.49687 -0.46868,0.50138 -0.46372,0.50589 -0.45868,0.51036 -0.4536,0.5148 -0.4484,0.51922 -0.44321,0.5236 -0.43789,0.52796 -0.43258,0.53227 -0.4272,0.53655 -0.42173,0.5408 -0.41623,0.54498 -0.41065,0.54916 -0.4051,0.55328 -0.39941,0.55732 -0.39375,0.56136 -0.38802,0.56528 -0.38221,0.56925 -0.37644,0.57306 -0.37054,0.57691 -0.3647,0.58064 -0.35877,0.58434 -0.35284,0.58796 -0.34683,0.59157 -0.34088,0.59504 -0.33487,0.5985 -0.32883,0.60189 -0.32275,0.60519 -0.31671,0.60847 -0.31063,0.61166 -0.30454,0.61478 -0.29846,0.61782 -0.29234,0.62082 -0.28622,0.6237 -0.28018,0.6266 -0.27541,0.63256 -0.15294,0.35869 -0.26436,0.63337 -0.25809,0.63587 -0.25185,0.63829 -0.2455,0.64068 -0.23908,0.64299 -0.23269,0.6453 -0.22618,0.64757 -0.21968,0.64969 -0.2131,0.65188 -0.20652,0.65392 -0.1999,0.65592 -0.1932,0.65792 -0.1865,0.65981 -0.17977,0.66162 -0.17299,0.66343 -0.16622,0.66516 -0.15945,0.66677 -0.1526,0.66839 -0.14579,0.66989 -0.1389,0.67139 -0.13208,0.67278 -0.12516,0.67409 -0.11834,0.67536 -0.11142,0.67659 -0.10457,0.67766 -0.0977,0.67879 -0.0908,0.67974 -0.084,0.68071 -0.0771,0.68156 -0.0703,0.68236 -0.0635,0.68302 -0.0567,0.6839 -0.0499,0.68428 -0.0431,0.68505 -0.0364,0.68505 -0.0297,0.68582 -0.023,0.68621 -0.0164,0.68621 -0.01,0.68698 -0.003,0.67543 0.003,0.68659 0.01,0.68659 0.0164,0.68621 0.023,0.68621 0.0297,0.68582 0.0364,0.68505 0.0431,0.68505 0.0498,0.68428 0.0566,0.68351 0.0634,0.68313 0.0702,0.68236 0.0771,0.6812 0.0839,0.68082 0.0908,0.67967 0.0976,0.6789 0.10449,0.67736 0.11138,0.67659 0.11826,0.67543 0.12512,0.67428 0.132,0.67274 0.13886,0.6712 0.14571,0.67005 0.15252,0.66851 0.15937,0.66658 0.16618,0.66505 0.17296,0.66351 0.17973,0.66197 0.18643,0.65966 0.19316,0.65811 0.19982,0.6558 0.20648,0.65388 0.21306,0.65195 0.21964,0.65003 0.22618,0.64734 0.23265,0.64541 0.23908,0.64311 0.24547,0.6408 0.25182,0.63849 0.25816,0.63618 0.2599,0.62309 0.27036,0.63079 0.27648,0.6281 0.28256,0.6254 0.28869,0.62232 0.29476,0.61963 0.30084,0.61655 0.30697,0.61347 0.31305,0.61039 0.31913,0.60731 0.32517,0.60347 0.33121,0.60077 0.33726,0.59692 0.34326,0.59384 0.34926,0.58999 0.35519,0.58653 0.36116,0.58268 0.36704,0.57922 0.37293,0.57537 0.37874,0.57152 0.38456,0.56767 0.39033,0.56382 0.39606,0.55959 0.40172,0.55574 0.40734,0.55189 0.41292,0.54728 0.4185,0.54343 0.42397,0.5392 0.42935,0.53496 0.43478,0.53034 0.44009,0.52649 0.44536,0.52187 0.45052,0.51726 0.45571,0.51302 0.46076,0.50879 0.4658,0.50417 0.47073,0.49955 0.47565,0.49493 0.48288,0.49301 0.27507,0.27672 0.48776,0.48339 0.49231,0.47839 0.49686,0.47376 0.50138,0.46837 0.50588,0.46376 0.51035,0.45876 0.51479,0.45375 0.51924,0.44837 0.52358,0.44298 0.52795,0.43797 0.53227,0.43258 0.53655,0.4272 0.54079,0.42181 0.54498,0.41642 0.54916,0.41065 0.55324,0.40487 0.55732,0.39949 0.56136,0.39372 0.56528,0.38794 0.56925,0.38217 0.5731,0.37678 0.57687,0.37024 0.58064,0.36485 0.58434,0.35869 0.58796,0.35292 0.59157,0.34676 0.59504,0.34099 0.59846,0.33483 0.60193,0.32868 0.60519,0.3229 0.60847,0.31674 0.61162,0.31058 0.61478,0.30443 0.61782,0.29866 0.62082,0.2925 0.6237,0.28595 0.6266,0.28018 0.6326,0.27556 0.35877,0.15279 0.63341,0.2644 0.63583,0.25824 0.63833,0.2517 0.64064,0.24554 0.64299,0.239 0.6453,0.23284 0.64757,0.2263 0.64969,0.21975 0.65188,0.21283 0.65392,0.20667 0.65592,0.19974 0.65792,0.1932 0.65977,0.18666 0.66169,0.17973 0.66339,0.17281 0.66516,0.16626 0.66677,0.15972 0.66839,0.15241 0.66989,0.14587 0.67139,0.13894 0.67278,0.132 0.67409,0.12508 0.67536,0.11854 0.67659,0.11123 0.67766,0.10468 0.67879,0.0978 0.67974,0.0908 0.68074,0.0839 0.68151,0.077 0.68236,0.0704 0.68302,0.0635 0.6839,0.0566 0.68428,0.05 0.68505,0.0431 0.68505,0.0366 0.68582,0.0296 0.68621,0.0231 0.68621,0.0162 0.68698,0.01 0.67543,0.003 0.68659,-0.003 0.68659,-0.01 0.68621,-0.0165 0.68621,-0.0231 0.68582,-0.0296 0.68505,-0.0362 0.68505,-0.0431 0.68428,-0.05 0.68351,-0.0566 0.68313,-0.0635 0.68236,-0.07 0.6812,-0.077 0.68082,-0.0839 0.67967,-0.0908 0.6789,-0.0978 0.67736,-0.1043 0.67659,-0.11161 0.67543,-0.11815 0.67428,-0.12508 0.67274,-0.132 0.6712,-0.13894 0.67005,-0.14548 0.66851,-0.15279 0.66658,-0.15933 0.66505,-0.16626 0.66351,-0.17281 0.66197,-0.17973 0.65966,-0.18627 0.65811,-0.1932 0.6558,-0.20013 0.65426,-0.20629 0.65157,-0.21321 0.65003,-0.21937 0.64734,-0.2263 0.64541,-0.23284 0.64311,-0.239 0.6408,-0.24554 0.63849,-0.2517 0.63618,-0.25824 0.62309,-0.25978 0.63079,-0.27056 0.6281,-0.27633 0.6254,-0.28249 0.62232,-0.28864 0.61963,-0.29481 0.61655,-0.30096 0.61347,-0.30674 0.61039,-0.31328 0.60693,-0.31905 0.60424,-0.32521 0.60039,-0.33137 0.59692,-0.33714 0.59384,-0.3433 0.58999,-0.34907 0.58653,-0.35523 0.58268,-0.36139 0.57922,-0.36677 0.57537,-0.37293 0.57152,-0.3787 0.56767,-0.38486 0.56382,-0.39025 0.55959,-0.39602 0.55574,-0.4018 0.55151,-0.40718 0.54766,-0.41296 0.54343,-0.41835 0.5392,-0.42412 0.53457,-0.42951 0.53072,-0.43451 0.52611,-0.44028 0.52187,-0.44529 0.51764,-0.45068 0.51302,-0.45568 0.50879,-0.46068 0.50417,-0.46568 0.49955,-0.47107 0.49493,-0.47531 0.49301,-0.483 0.27672,-0.27518 0.48339,-0.48801 0.47839,-0.49224 0.47376,-0.49686 0.46837,-0.50109 0.46376,-0.50609 0.45876,-0.51033 0.45375,-0.51495 0.44837,-0.51918 0.44336,-0.52341 0.43759,-0.52803 0.43258,-0.53226 0.4272,-0.5365 0.42181,-0.54074 0.41642,-0.54497 0.41065,-0.5492 0.40487,-0.55343 0.39949,-0.55728 0.39372,-0.56113 0.38794,-0.56536 0.38255,-0.56921 0.37639,-0.57306 0.37062,-0.57691 0.36447,-0.58076 0.35869,-0.58422 0.35292,-0.58807 0.34676,-0.59153 0.34099,-0.595 0.33483,-0.59846 0.32906,-0.60193 0.32252,-0.60539 0.31674,-0.60847 0.31058,-0.61155 0.30443,-0.61462 0.29866,-0.61809 0.2925,-0.62078 0.28595,-0.62347 0.28018,-0.62656 0.27556,-0.63272 0.15279,-0.35869 0.2644,-0.63349 0.25824,-0.6358 0.2517,-0.63849 0.24554,-0.64041 0.239,-0.64311 0.23284,-0.64541 0.2263,-0.64734 0.21975,-0.64965 0.21283,-0.65195 0.20667,-0.65388 0.19974,-0.65619 0.1932,-0.65773 0.18666,-0.65966 0.17973,-0.66197 0.17281,-0.66312 0.16626,-0.66543 0.15972,-0.66658 0.15241,-0.66851 0.14587,-0.67005 0.13894,-0.6712 0.132,-0.67274 0.12508,-0.67428 0.11854,-0.67505 0.11123,-0.67659 0.10468,-0.67774 0.0978,-0.6789 0.0908,-0.67967 0.0839,-0.68082 0.077,-0.68159 0.0704,-0.68236 0.0635,-0.68313 0.0566,-0.68351 0.05,-0.68428 0.0431,-0.68505 0.0366,-0.68544 0.0296,-0.68582 0.0231,-0.68582 0.0162,-0.68659 0.01,-0.68659 0.003,-0.67543 v -0.0162 z"
           data-paper-data="{&quot;isPathIcon&quot;:true}"
           id="path2" />
      </g>
      <g
         data-paper-data="{&quot;isContainerElementsWrapper&quot;:true}"
         fill-rule="evenodd"
         id="g10">
        <path
           d="m 183.78322,143.78327 c -11.90068,11.90072 -21.11506,25.56814 -27.64313,41.00223 -6.76009,15.98252 -10.14014,32.72072 -10.14014,50.21459 0,17.49432 3.38005,34.23229 10.14014,50.21393 6.52808,15.4349 15.74245,29.10269 27.64313,41.00337 11.90086,11.90005 25.56831,21.1144 41.00233,27.64304 15.9829,6.75971 32.72109,10.13957 50.21459,10.13957 17.49368,0 34.23166,-3.37986 50.21393,-10.13957 15.43427,-6.52864 29.10206,-15.74299 41.00337,-27.64304 11.90005,-11.90131 21.1144,-25.5691 27.64304,-41.00337 6.75971,-15.98164 10.13957,-32.71961 10.13957,-50.21393 0,-17.494 -3.37986,-34.2322 -10.13957,-50.21459 -6.52864,-15.434 -15.74299,-29.10141 -27.64304,-41.00223 -11.90131,-11.90068 -25.5691,-21.11509 -41.00337,-27.64323 C 309.2318,109.38001 292.49383,106 275.00014,106 c -17.49387,0 -34.23207,3.38001 -50.21459,10.14004 -15.43418,6.52814 -29.10162,15.74255 -41.00233,27.64323 z m -35.33072,91.21682 c 0,-17.1623 3.31546,-33.58205 9.94638,-49.25925 6.40389,-15.14049 15.44339,-28.54829 27.11849,-40.22342 11.67521,-11.67517 25.08305,-20.7147 40.22351,-27.11859 15.67721,-6.63086 32.09696,-9.94629 49.25925,-9.94629 17.16286,0 33.58265,3.31543 49.25935,9.94629 15.14006,6.4037 28.54774,15.44323 40.22304,27.11859 11.67529,11.67534 20.71476,25.08315 27.1184,40.22342 6.63092,15.67752 9.94638,32.09727 9.94638,49.25925 0,17.16223 -3.31546,33.58202 -9.94638,49.25935 -6.40364,15.14006 -15.44311,28.54774 -27.1184,40.22304 -11.67529,11.67529 -25.08297,20.71476 -40.22304,27.1184 -15.6767,6.63092 -32.09648,9.94638 -49.25935,9.94638 -17.16242,0 -33.58217,-3.31546 -49.25925,-9.94638 -15.14034,-6.40364 -28.54817,-15.44311 -40.22351,-27.1184 -11.6751,-11.67466 -20.7146,-25.08234 -27.11849,-40.22304 -6.63092,-15.67733 -9.94638,-32.09711 -9.94638,-49.25935 z"
           data-paper-data="{&quot;isAdditionalOutlinePath&quot;:true}"
           id="path6" />
        <path
           d="m 152.37641,235.00009 c 0,-67.72317 54.90051,-122.62363 122.62373,-122.62363 67.72308,0 122.62373,54.90047 122.62373,122.62363 0,67.72308 -54.90065,122.62373 -122.62373,122.62373 -67.72322,0 -122.62373,-54.90065 -122.62373,-122.62373 z m 135.52401,-103.94379 -0.82134,11.29662 -1.51748,-0.11033 0.60068,-8.26166 -3.75525,3.62541 -0.43837,-0.0319 -3.27559,-4.13661 -0.60068,8.26166 -1.51748,-0.11033 0.82134,-11.29662 0.60703,0.0441 4.32194,5.36534 4.96827,-4.68985 z m -20.98296,8.2841 1.47647,2.55663 1.81446,-0.20275 -6.51652,-10.66866 -0.75599,0.0845 -4.00062,11.84399 1.81446,-0.20275 0.89236,-2.82141 z m 30.99449,-6.55629 -2.91772,10.94424 1.4707,0.39187 1.14019,-4.2796 c 0.50191,0.41375 1.376,0.94397 2.50293,1.24446 2.25387,0.60087 4.47365,-0.50456 4.98692,-2.432 0.60135,-2.25425 -0.94322,-4.20545 -2.82207,-4.70623 z m -49.94573,1.07172 1.45706,-0.43789 3.2593,10.84736 -1.45706,0.4378 -1.47401,-4.90557 -6.1846,1.85831 1.47401,4.90557 -1.45715,0.4378 -3.2593,-10.84727 1.45715,-0.43789 1.37183,4.5656 6.1846,-1.85821 z m 18.17006,4.126 -4.03215,0.45058 1.52032,-4.81371 z m 34.29281,1.70177 c -0.98015,-0.26128 -1.9442,-0.78071 -2.46694,-1.18243 l 1.05023,-3.93669 2.4821,0.66186 c 1.40535,0.37454 2.46789,1.63765 2.09761,3.02606 -0.32672,1.22514 -1.51331,1.871 -3.16299,1.43121 z m 18.3946,1.75338 -1.75006,-0.76613 -3.38933,7.74308 1.75006,0.76613 -0.57673,1.31631 -4.89317,-2.14228 0.57578,-1.31634 1.75006,0.76603 3.39027,-7.74308 -1.75006,-0.76603 0.57578,-1.31634 4.89412,2.14231 z m -90.38971,-0.42966 c -3.04272,1.55015 -4.10469,5.08891 -2.63125,7.98097 1.47344,2.89207 4.9605,4.1132 8.00322,2.563 1.46104,-0.7444 2.35993,-1.84744 2.74555,-2.84076 l -0.69065,-1.35564 c -0.43164,0.90287 -1.19389,2.08805 -2.73031,2.87086 -2.25936,1.15114 -4.79089,0.31594 -5.94198,-1.94346 -1.15118,-2.25946 -0.33874,-4.79837 1.92071,-5.94946 1.3188,-0.6719 2.39895,-0.49528 3.2576,-0.35484 0.14167,0.0231 0.27728,0.0453 0.40702,0.0625 l -0.75978,-1.49115 c -1.03025,-0.27198 -2.11911,-0.28647 -3.58015,0.45797 z m 103.5076,5.98487 c -2.86658,-1.85641 -6.46141,-1.00231 -8.22567,1.72194 -1.76427,2.72427 -1.0739,6.35383 1.79173,8.21026 2.86658,1.85642 6.46141,1.00231 8.22567,-1.72195 1.76427,-2.72426 1.0739,-6.35384 -1.79173,-8.21025 z m -0.80874,1.24863 c 2.12792,1.37855 2.67339,3.9878 1.2955,6.11613 -1.37884,2.12832 -3.9831,2.69735 -6.11196,1.31882 -2.12792,-1.37852 -2.67339,-3.98779 -1.2955,-6.11615 1.37884,-2.1283 3.9831,-2.69735 6.11196,-1.3188 z m -123.25201,6.35552 0.96911,1.06099 -2.88343,2.63357 6.63527,7.26465 -1.12343,1.02607 -6.63524,-7.26464 -2.88339,2.63358 -0.96906,-1.06099 z m 142.90045,8.10487 -7.83267,8.18134 -0.43941,-0.42085 0.31251,-10.91121 -5.60058,5.84903 -1.09852,-1.05218 7.83267,-8.18132 0.43941,0.42087 -0.38259,10.98444 5.66971,-5.9223 z m -151.56837,72.29888 c 0,-41.85605 33.93108,-75.78717 75.78723,-75.78717 41.85567,0 75.78682,33.93112 75.78682,75.78717 0,41.85662 -33.93114,75.78682 -75.78682,75.78682 -41.85615,0 -75.78723,-33.9302 -75.78723,-75.78682 z m 4.40641,-60.14326 1.46021,-1.81938 -7.13843,1.35895 c 0.15073,-0.1608 0.26713,-0.30579 0.36236,-0.42445 1.22743,-1.52932 1.6482,-3.83622 2e-4,-5.1588 -1.8194,-1.46025 -3.89859,-0.57116 -5.11544,0.94502 l -2.71939,3.38828 8.83331,7.08946 0.95232,-1.1866 -3.7179,-2.98391 z m -11.07752,-1.99751 1.60835,-2.00395 c 0.90999,-1.13385 2.19122,-1.62288 3.18003,-0.82929 0.94926,0.76186 0.942,2.01324 -0.12671,3.34482 -0.53964,0.67237 -1.20332,1.31027 -1.8271,1.76342 z m 166.56743,-0.46953 c -1.20459,-1.61085 -3.35808,-2.17489 -4.79279,-1.10155 -1.01519,0.7594 -1.48964,1.70546 -1.09947,3.44046 l 0.44699,2.00888 c 0.17141,0.73724 0.34944,1.76531 -0.32766,2.27158 -0.79832,0.59746 -1.86939,0.15313 -2.54839,-0.75381 -0.86083,-1.1507 -1.07864,-2.40189 -1.11746,-3.47039 l -1.25952,0.9417 c 0.0256,0.99407 0.28505,2.21495 1.06443,3.25731 1.24531,1.66502 3.37133,2.33389 4.84677,1.23016 1.13735,-0.8506 1.25667,-1.93236 0.89397,-3.60307 l -0.3627,-1.6707 c -0.21876,-0.99767 -0.36649,-1.81607 0.3646,-2.36287 0.97447,-0.729 2.18379,0.013 2.80124,0.83876 0.62786,0.83933 0.77938,1.88766 0.78507,2.68551 l 1.25857,-0.94161 c -0.0568,-0.78109 -0.15341,-1.70091 -0.95363,-2.77036 z m 10.38958,17.54126 0.69699,1.35223 -10.06665,5.19176 -0.69699,-1.35223 4.55225,-2.34791 -2.96033,-5.73941 -4.55225,2.34791 -0.69699,-1.35223 10.0657,-5.19176 0.69794,1.35223 -4.23689,2.18521 2.96033,5.73941 z m -174.6447,-2.78807 -2.94168,-0.25077 -2.53307,4.66485 1.80427,2.34544 -0.87123,1.60451 -7.42863,-10.05491 0.36299,-0.66849 12.4786,0.75486 z m -6.439,3.17871 1.93606,-3.56556 -5.01572,-0.43439 z m -0.58932,11.03373 -10.78211,-3.46906 -0.18637,0.57928 3.38203,5.93629 -6.23507,2.93079 -0.18637,0.57928 10.78211,3.46916 0.46593,-1.44835 -7.88532,-2.53712 4.79383,-2.20462 0.13457,-0.41839 -2.63466,-4.50603 7.88542,2.53712 z m 185.79532,2.95607 0.58051,1.82014 1.36842,-0.43619 -1.62127,-5.08996 -1.36937,0.43628 0.58051,1.82014 -8.05427,2.56581 -0.57957,-1.82014 -1.36937,0.43619 1.62222,5.08996 1.36842,-0.43619 -0.57957,-1.82014 z m -6.92638,12.78664 11.204,-1.65981 0.66196,4.46493 c 0.28505,1.92308 -0.89492,4.11435 -3.20277,4.45622 -1.97261,0.29234 -3.86756,-1.30687 -4.20943,-3.61452 -0.17046,-1.15392 -0.0303,-2.16589 0.15057,-2.79082 l -4.38179,0.64908 z m 5.97559,0.65286 c -0.16194,0.63913 -0.25664,1.7298 -0.10796,2.73315 0.25001,1.68898 1.31349,2.52263 2.56827,2.33692 1.42145,-0.21061 2.15917,-1.68718 1.94609,-3.1253 l -0.37596,-2.54185 z m -201.45346,2.34241 c -0.28173,1.99193 0.84691,3.91008 2.62112,4.16113 1.25544,0.17766 2.25908,-0.15843 3.20618,-1.66351 l 1.09976,-1.73955 c 0.3984,-0.64368 0.99729,-1.49797 1.83425,-1.3796 0.98754,0.13978 1.43367,1.21018 1.27505,2.33162 -0.20133,1.42278 -0.92911,2.46372 -1.65479,3.24889 l 1.55668,0.22027 c 0.6827,-0.72294 1.36028,-1.77099 1.54267,-3.05986 0.2912,-2.05879 -0.74425,-4.03215 -2.56875,-4.29031 -1.40602,-0.19887 -2.25377,0.48363 -3.17464,1.92403 l -0.92096,1.44049 c -0.54869,0.86149 -1.02106,1.54579 -1.92497,1.41795 -1.20516,-0.17046 -1.53935,-1.54949 -1.39494,-2.57055 0.14688,-1.03773 0.77929,-1.88738 1.33793,-2.4571 l -1.55668,-0.22027 c -0.51081,0.59368 -1.09076,1.31406 -1.27789,2.63636 z m 11.29842,28.21503 c -0.28173,-1.99193 -1.89817,-3.52181 -3.67248,-3.27076 -1.25535,0.17756 -2.1264,0.77891 -2.61884,2.48759 l -0.57407,1.9764 c -0.20417,0.72891 -0.54263,1.71578 -1.3796,1.83425 -0.98754,0.13968 -1.71313,-0.76499 -1.87175,-1.88653 -0.20133,-1.42268 0.20919,-2.62472 0.68857,-3.58034 l -1.55659,0.22018 c -0.45551,0.88403 -0.81575,2.07886 -0.63336,3.36773 0.2913,2.05879 1.83349,3.66746 3.65799,3.4094 1.40602,-0.19897 2.03123,-1.08981 2.51638,-2.72926 l 0.48515,-1.63936 c 0.28817,-0.97986 0.55229,-1.76843 1.45611,-1.89628 1.20516,-0.17056 1.90878,1.06169 2.0532,2.08275 0.14688,1.03773 -0.22501,2.02943 -0.60371,2.73173 l 1.55668,-0.22018 c 0.32605,-0.71196 0.68345,-1.56502 0.49632,-2.88732 z m 184.4304,4.63085 11.204,1.66 0.22349,-1.50517 -4.38179,-0.64908 c 0.35418,-0.54566 0.78223,-1.47344 0.95363,-2.62737 0.34187,-2.30766 -1.00856,-4.38747 -2.98117,-4.67981 -2.30785,-0.34187 -4.07212,1.4134 -4.35716,3.33648 z m 6.57032,-3.28203 c -0.14868,1.00335 -0.55589,2.01977 -0.89587,2.58466 l -4.03045,-0.59709 0.37691,-2.54185 c 0.21308,-1.43812 1.34759,-2.63722 2.76904,-2.4266 1.25383,0.1858 2.03038,1.2919 1.78037,2.98088 z m -185.9316,19.06565 -10.78211,3.46887 -0.46602,-1.44892 7.88542,-2.53702 -4.76797,-2.12413 -0.13457,-0.41858 2.60881,-4.58634 -7.88542,2.53702 -0.46602,-1.44797 10.78211,-3.46887 0.18637,0.57957 -3.35618,6.01631 6.20912,2.85048 z m 178.80445,-7.34307 -0.57957,1.82014 8.05332,2.56543 0.58051,-1.82014 1.36937,0.43657 -1.62222,5.09015 -1.36937,-0.43657 0.58051,-1.82014 -8.05427,-2.56543 -0.57957,1.82014 -1.36937,-0.43657 1.62222,-5.09015 z m -6.03431,12.26181 -0.69699,1.35232 4.23689,2.18474 -2.96033,5.73979 -4.23689,-2.18568 -0.69699,1.35232 10.0657,5.19147 0.69794,-1.35137 -4.55225,-2.34857 2.95939,-5.73884 4.55319,2.34762 0.69699,-1.35232 z m -173.86459,12.41048 -1.81238,2.33152 0.87124,1.60422 7.42871,-10.05529 -0.36301,-0.66858 -12.47858,0.75476 0.87124,1.60517 2.94973,-0.2358 z m 0.96424,-1.23489 -1.93605,-3.56547 5.03185,-0.40437 z m 162.81476,10.86687 c -1.43471,-1.07296 -1.50195,-3.29747 -0.29736,-4.90832 0.80022,-1.06917 1.65536,-1.4224 2.38834,-1.69703 l 1.25952,0.94132 c -0.76423,0.23107 -1.72733,0.67237 -2.3552,1.51142 -0.61745,0.82579 -0.98772,2.19515 -0.0133,2.92435 0.73109,0.54642 1.47448,0.17425 2.37035,-0.31725 l 1.50005,-0.82011 c 1.50005,-0.82011 2.57112,-1.0114 3.70847,-0.16004 1.47543,1.10326 1.43471,3.33156 0.1894,4.99639 -0.78033,1.04265 -1.87791,1.63548 -2.82397,1.94136 l -1.25952,-0.94227 c 1.01424,-0.33903 2.15254,-0.90155 3.01337,-2.05216 0.67805,-0.90723 0.80211,-2.06068 0.004,-2.65824 -0.67711,-0.5057 -1.61275,-0.0445 -2.27186,0.32766 l -1.8012,0.99625 c -1.55403,0.86461 -2.59574,0.67616 -3.61093,-0.0833 z m -154.22049,8.52682 -1.46021,-1.81919 0.35304,-7.17639 -3.7179,2.98401 -0.95232,-1.1866 8.83331,-7.08927 2.71939,3.38743 c 1.21684,1.51615 1.63484,3.73877 -0.18455,5.19905 -1.64801,1.32296 -3.80908,0.41289 -5.03651,-1.11652 -0.0952,-0.11838 -0.21162,-0.26421 -0.336,-0.44604 z m 4.49595,-10.19829 -1.60836,-2.00386 -2.83457,2.27565 c 0.30737,0.70646 0.78647,1.49248 1.32612,2.16485 1.06871,1.33149 2.28889,1.60991 3.23814,0.84757 0.9888,-0.79359 0.78866,-2.1497 -0.12133,-3.28421 z m 150.41206,13.46924 -7.83267,-8.18117 -1.09947,1.05212 5.67066,5.92256 -10.95778,-0.85988 -0.43941,0.42047 7.83267,8.18117 1.09947,-1.05212 -5.60058,-5.8487 10.8877,0.78696 z m -136.57716,0.80685 0.96907,-1.06064 -6.89022,-6.29284 -0.96906,1.06064 2.88334,2.63362 -6.6352,7.26447 1.1234,1.02655 6.63523,-7.26541 z m 109.47486,13.20975 c -1.76522,-2.72358 -1.07485,-6.35345 1.79173,-8.20958 2.86658,-1.85707 6.46046,-1.00288 8.22567,1.72165 1.76427,2.72453 1.0739,6.35345 -1.79268,8.21052 -2.86563,1.85613 -6.46046,1.00193 -8.22473,-1.7226 z m 8.71149,-5.64225 c -1.37884,-2.12886 -3.9831,-2.69707 -6.11102,-1.31918 -2.12792,1.37884 -2.67434,3.98783 -1.2955,6.1167 1.37884,2.12792 3.9831,2.69707 6.11102,1.31823 2.12886,-1.37789 2.67434,-3.98783 1.2955,-6.11575 z m -106.87799,5.38183 c 1.47344,-2.89215 4.96041,-4.11378 8.00313,-2.56354 1.46113,0.74434 2.08947,1.63453 2.47509,2.62699 l -0.75978,1.49153 c -0.43988,-0.81253 -0.8542,-2.00954 -2.39062,-2.79271 -2.25946,-1.15061 -4.79089,-0.31535 -5.94207,1.94325 -1.15118,2.25955 -0.33865,4.79847 1.92071,5.95002 1.53642,0.78223 2.94329,0.70268 3.92751,0.52085 l -0.69065,1.35611 c -1.03034,0.27179 -2.45104,0.19319 -3.91217,-0.5521 -3.04272,-1.5493 -4.1046,-5.08825 -2.63116,-7.9804 z m 88.09796,0.58051 1.75006,-0.76613 -0.57578,-1.31634 -4.89412,2.14212 0.57673,1.31634 1.75006,-0.76613 3.38933,7.74365 -1.75006,0.76613 0.57673,1.31634 4.89317,-2.14212 -0.57578,-1.31634 -1.75006,0.76518 z m -61.17597,4.15924 -1.45715,-0.43752 -1.37183,4.56551 -6.1846,-1.85897 1.37183,-4.56551 -1.45706,-0.43752 -3.2593,10.84698 1.45706,0.43846 1.47401,-4.90548 6.1846,1.85802 -1.47401,4.90548 1.45715,0.43752 z m 45.36763,11.48337 -2.91772,-10.94452 4.3619,-1.16197 c 1.87791,-0.50096 4.1886,0.42236 4.78995,2.67623 0.51328,1.9281 -0.86083,3.99162 -3.1147,4.59202 -1.12693,0.30115 -2.14875,0.27558 -2.78987,0.16667 l 1.14019,4.27951 z m -0.0275,-6.01064 c 0.65343,0.0881 1.74722,0.0587 2.72737,-0.20266 1.64968,-0.44036 2.35804,-1.59097 2.03132,-2.81639 -0.37028,-1.38831 -1.92052,-1.95462 -3.32588,-1.5796 l -2.48304,0.66196 z m -30.84202,8.16128 -0.8756,-2.82018 -5.27538,-0.58904 -1.49324,2.55502 -1.81446,-0.20266 6.51652,-10.66894 0.75599,0.0843 4.00062,11.84418 z m 20.81098,-0.41479 -0.82134,-11.29681 -0.60703,0.0445 -4.23756,5.35909 -5.05255,-4.68388 -0.60703,0.0445 0.82143,11.29586 1.51738,-0.10985 -0.60068,-8.26166 3.83953,3.61945 0.43837,-0.0322 3.19131,-4.13083 0.60078,8.26166 z m -26.18077,-4.35337 4.03215,0.45077 -1.4867,-4.80983 z"
           data-paper-data="{&quot;isBaseLogoContainer&quot;:true}"
           id="path8" />
      </g>
    </g>
  </g>
</svg>